<?xml version="1.0" encoding="utf-8"?>
<!-- Generator: Adobe Illustrator 17.0.2, SVG Export Plug-In . SVG Version: 6.00 Build 0)  -->
<!DOCTYPE svg PUBLIC "-//W3C//DTD SVG 1.1//EN" "http://www.w3.org/Graphics/SVG/1.1/DTD/svg11.dtd">
<svg version="1.1" id="Layer_1" xmlns="http://www.w3.org/2000/svg" xmlns:xlink="http://www.w3.org/1999/xlink" x="0px" y="0px"
	 width="400px" height="400px" viewBox="0 0 400 400" enable-background="new 0 0 400 400" xml:space="preserve">
<g>
	<path fill="#D3DFED" d="M181.247,57.952c-1.574,3.277-2.754,6.824-4.789,9.783c-8.976,13.055-18.493,25.746-27.258,38.938
		c-10.968,16.506-21.393,33.372-32.044,50.088c-0.238,0.373-0.375,0.811-0.766,1.679c2.394-0.254,4.435-0.417,6.459-0.695
		c11.442-1.575,21.897,0.825,30.724,8.392c5.552,4.76,8.634,11.159,9.899,18.391c1.861,10.635-0.343,20.729-4.275,30.517
		c-5.231,13.022-13.162,24.332-23.124,34.108c-13.914,13.654-30.244,23.263-49.507,27.124c-13.223,2.65-26.387,2.197-39.719-3.247
		c-13.981,23.854-27.98,47.74-41.979,71.625c11.715-24.804,23.729-49.499,36.651-73.795c-2.938-2.201-5.772-4.231-8.503-6.389
		c-7.689-6.078-12.514-14.165-15.948-23.168c-3.945-10.342-5.177-21.152-4.347-32.075c1.603-21.117,8.889-40.247,21.971-56.91
		c8.647-11.014,19.063-20.077,32.468-25.06c14.398-5.353,29.418-3.427,40.444,8.313c3.123,3.325,5.558,7.102,6.215,12.285
		c1.717-2.628,3.271-4.943,4.761-7.298c14.733-23.295,29.177-46.786,45.674-68.903c3.001-4.023,6.744-7.516,10.328-11.069
		c1.186-1.176,2.949-1.772,4.447-2.633C179.767,57.952,180.507,57.952,181.247,57.952z M54.747,197.188c0,0,0.023,0.023,0.023,0.023
		c0.361-0.621,0.616-1.345,1.101-1.846c2.621-2.708,5.226-5.439,7.971-8.02c11.142-10.477,23.835-18.562,38.067-24.149
		c2.398-0.942,4.112-2.293,5.36-4.455c1.29-2.236,2.59-4.474,4.034-6.61c0.926-1.369,0.646-2.327-0.429-3.389
		c-2.894-2.858-5.623-5.895-8.641-8.613c-2.104-1.894-4.404-3.718-6.914-4.987c-10.287-5.202-20.298-3.048-29.924,1.914
		c-8.638,4.453-15.726,10.871-21.908,18.354c-13.227,16.008-20.342,34.487-21.921,55.05c-0.768,9.997,0.552,19.878,4.36,29.273
		c3.961,9.773,10.162,17.665,19.442,22.874c18.015-30.688,35.964-61.264,53.958-91.917c-0.37-0.023-0.57-0.091-0.726-0.036
		c-13.734,4.773-26.211,11.741-37.247,21.252C59.218,193.744,56.952,195.431,54.747,197.188z M51.693,265.412
		c9.622,4.203,21.02,4.88,32.129,2.621c17.007-3.46,31.473-11.775,43.933-23.712c6.564-6.289,12.237-13.341,16.638-21.28
		c5.806-10.474,10.362-21.354,9.18-33.808c-0.797-8.391-4.816-14.546-12.111-18.626c-7.965-4.454-16.638-4.312-25.342-3.753
		c-3.33,0.214-6.151,0.925-8.164,4.41c-5.899,10.214-12.358,20.102-18.431,30.219c-10.487,17.468-20.857,35.006-31.255,52.528
		C56.072,257.714,53.963,261.471,51.693,265.412z"/>
	<path fill="#D3DFED" d="M392.644,220.288c-5.256,12.019-15.534,16.557-27.566,18.253c-4.72,0.665-9.515,0.922-14.285,1.053
		c-2.31,0.063-4.639-0.594-6.946-1.235c7.93,0.101,15.485-1.433,22.877-4.101c5.416-1.955,10.666-4.235,15.027-8.018
		c5.594-4.852,7.111-10.279,1.131-15.801c-4.696-4.336-10.317-7.67-15.531-11.443c-3.625-2.623-7.061-5.45-8.443-9.928
		c-1.705-5.526,0.68-10.141,3.763-14.392c4.221-5.82,9.682-10.387,15.849-13.991c1.949-1.139,4.476-1.29,6.739-1.893
		c0.153,0.285,0.307,0.569,0.46,0.854c-1.234,1.242-2.38,2.591-3.719,3.708c-5.126,4.276-9.819,8.942-13.344,14.654
		c-0.911,1.476-1.542,3.133-2.22,4.741c-0.94,2.232-0.355,4.302,1.375,5.768c3.222,2.731,6.605,5.277,9.984,7.817
		c4.734,3.56,9.334,7.25,12.439,12.416c0.932,1.55,1.614,3.25,2.411,4.881C392.644,215.849,392.644,218.068,392.644,220.288z"/>
	<path fill="#D3DFED" d="M284.137,248.235c-0.616-2.919-1.463-5.811-1.808-8.762c-1.409-12.057-0.352-24.102,0.437-36.143
		c0.018-0.276,0.027-0.554,0.034-0.831c0.202-7.838,0.366-15.676,0.62-23.512c0.14-4.322,0.431-8.64,0.654-12.959
		c-0.202-0.078-0.404-0.155-0.606-0.233c-0.498,0.991-1.07,1.952-1.482,2.978c-3.464,8.638-6.773,17.34-10.407,25.905
		c-1.349,3.179-3.107,6.312-5.276,8.981c-2.321,2.857-5.896,2.436-7.441-0.942c-1.855-4.055-3.049-8.437-4.277-12.749
		c-1.154-4.051-1.981-8.194-3.332-12.309c-0.584,5.643-1.215,11.283-1.741,16.931c-0.75,8.051-1.47,16.105-2.111,24.165
		c-0.328,4.13-0.383,8.281-0.701,12.412c-0.254,3.293-0.593,6.592-1.174,9.838c-0.168,0.937-1.304,1.701-1.997,2.545
		c-0.573-0.868-1.637-1.735-1.64-2.605c-0.02-6.268,0.172-12.537,0.305-18.806c0.018-0.83,0.062-1.66,0.117-2.489
		c0.727-11.012,1.427-22.026,2.201-33.035c0.516-7.336,1.108-14.668,1.732-21.995c0.21-2.465,0.626-4.912,0.946-7.367
		c0.271-2.076,1.224-3.449,3.527-3.459c2.401-0.01,2.819,1.853,3.132,3.554c1.031,5.597,1.739,11.259,2.922,16.821
		c1.624,7.638,3.562,15.209,5.391,22.802c0.165,0.685,0.511,1.326,1.479,2.164c1.997-4.82,4.06-9.614,5.977-14.465
		c3.216-8.14,6.312-16.327,9.529-24.467c0.537-1.358,1.186-2.846,2.224-3.788c1.208-1.096,3.098-2.514,4.33-2.229
		c1.434,0.332,3.353,2.251,3.526,3.669c0.579,4.729,0.506,9.542,0.602,14.325c0.026,1.275-0.302,2.553-0.358,3.835
		c-0.406,9.296-0.72,18.597-1.189,27.89c-0.468,9.282-0.996,18.563-1.665,27.833c-0.396,5.488-1.115,10.953-1.688,16.428
		C284.666,248.19,284.402,248.212,284.137,248.235z"/>
	<path fill="#D3DFED" d="M342.556,251.454c-3.129-12.458-6.258-24.915-9.515-37.879c-1.457,0.173-3.421,0.651-5.366,0.586
		c-4.221-0.141-8.448-0.429-12.642-0.925c-1.814-0.214-3.007-0.182-3.948,1.679c-2.715,5.371-5.607,10.653-8.457,15.956
		c-0.105,0.195-0.499,0.234-1.398,0.621c1.403-7.18,4.534-13.344,6.195-19.428c-3.882-2.543-7.579-4.926-11.222-7.388
		c-0.646-0.436-1.304-1.121-1.541-1.829c-0.323-0.965-0.703-2.474-0.228-3.005c0.635-0.708,2.185-1.162,3.137-0.92
		c4.29,1.092,8.508,2.468,13.012,3.82c2.552-7.591,5.02-15.044,7.568-22.469c1.999-5.826,4.077-11.626,6.171-17.42
		c0.409-1.132,0.901-2.29,1.611-3.246c2.023-2.724,5.853-2.474,7.079,0.675c1.08,2.772,1.691,5.798,2.048,8.767
		c0.805,6.696,1.206,13.44,1.991,20.139c0.984,8.392,2.242,16.752,3.279,25.138c0.802,6.491,1.515,12.994,2.136,19.505
		c0.554,5.81,0.928,11.638,1.381,17.458C343.417,251.344,342.986,251.399,342.556,251.454z M332.816,209.489
		c-1.568-12.881-3.081-25.312-4.675-38.406c-4.225,11.285-8.222,21.963-12.206,32.605
		C321.65,205.653,326.95,207.474,332.816,209.489z"/>
	<path fill="#D3DFED" d="M199.018,213.104c-9.925,14.232-20.651,27.215-32.482,39.254c-0.224-0.162-0.448-0.324-0.672-0.487
		c1.927-3.239,3.876-6.464,5.777-9.718c6.787-11.617,13.504-23.276,20.398-34.83c0.977-1.637,0.936-2.691-0.015-4.185
		c-6.586-10.346-11.272-21.472-12.983-33.671c-0.474-3.376-0.072-6.875,0.547-10.28c6.501,11.791,13.002,23.582,19.884,36.064
		c4.616-7.459,8.774-14.139,12.894-20.843c4.025-6.549,7.896-13.197,12.106-19.624c0.958-1.463,3.031-2.196,4.591-3.264
		c0.102,1.899,0.914,4.138,0.194,5.645c-5.796,12.13-11.874,24.125-17.885,36.152c-0.59,1.18-1.325,2.287-1.959,3.447
		c-3.891,7.112-3.812,7.055,1.112,13.379c6.339,8.14,12.549,16.379,18.794,24.591c1.269,1.668,2.448,3.404,3.22,5.476
		C220.056,232.982,208.518,224.782,199.018,213.104z"/>
	<path fill="#D3DFED" d="M45.352,199.063c-0.07,0.088-0.141,0.176-0.211,0.264c0.011-0.05,0.006-0.12,0.037-0.147
		c0.054-0.046,0.13-0.065,0.197-0.095L45.352,199.063z"/>
	<path fill="#D3DFED" d="M44.266,200.749c0.036-0.083,0.073-0.165,0.109-0.248c-0.043,0.076-0.087,0.151-0.13,0.227
		C44.245,200.728,44.266,200.749,44.266,200.749z"/>
	<path fill="#D3DFED" d="M44.245,200.728c-0.185,0.185-0.369,0.37-0.554,0.556l0.02,0.02c0.185-0.185,0.37-0.369,0.556-0.554
		L44.245,200.728z"/>
	<path fill="#D3DFED" d="M43.154,201.857c0.185-0.184,0.371-0.369,0.556-0.553l-0.02-0.02c-0.185,0.185-0.369,0.371-0.554,0.556
		L43.154,201.857z"/>
	<path fill="#D3DFED" d="M43.137,201.84c-0.037,0.074-0.074,0.149-0.111,0.223c0.043-0.069,0.086-0.137,0.129-0.206
		C43.154,201.857,43.137,201.84,43.137,201.84z"/>
</g>
</svg>
